<svg width="22" height="27" viewBox="0 0 22 27" fill="none" xmlns="http://www.w3.org/2000/svg">
<path d="M1 1V26L3.5 24.75L6 26L8.5 24.75L11 26L13.5 24.75L16 26L18.5 24.75L21 26V1L18.5 2.25L16 1L13.5 2.25L11 1L8.5 2.25L6 1L3.5 2.25L1 1Z" stroke="black" stroke-width="2" stroke-linecap="round" stroke-linejoin="round"/>
<path d="M6 17.25H12.25" stroke="black" stroke-width="2" stroke-linecap="round" stroke-linejoin="round"/>
<path d="M6 12.25H12.25C12.913 12.25 13.5489 11.9866 14.0178 11.5178C14.4866 11.0489 14.75 10.413 14.75 9.75C14.75 9.08696 14.4866 8.45107 14.0178 7.98223C13.5489 7.51339 12.913 7.25 12.25 7.25H8.5V19.75" stroke="black" stroke-width="2" stroke-linecap="round" stroke-linejoin="round"/>
</svg>
