<svg width="30" height="31" viewBox="0 0 30 31" fill="none" xmlns="http://www.w3.org/2000/svg">
<path d="M23.75 9.25V5.5C23.75 5.16848 23.6183 4.85054 23.3839 4.61612C23.1495 4.3817 22.8315 4.25 22.5 4.25H6.25C5.58696 4.25 4.95107 4.51339 4.48223 4.98223C4.01339 5.45107 3.75 6.08696 3.75 6.75C3.75 7.41304 4.01339 8.04893 4.48223 8.51777C4.95107 8.98661 5.58696 9.25 6.25 9.25H25C25.3315 9.25 25.6495 9.3817 25.8839 9.61612C26.1183 9.85054 26.25 10.1685 26.25 10.5V15.5M26.25 15.5H22.5C21.837 15.5 21.2011 15.7634 20.7322 16.2322C20.2634 16.7011 20 17.337 20 18C20 18.663 20.2634 19.2989 20.7322 19.7678C21.2011 20.2366 21.837 20.5 22.5 20.5H26.25C26.5815 20.5 26.8995 20.3683 27.1339 20.1339C27.3683 19.8995 27.5 19.5815 27.5 19.25V16.75C27.5 16.4185 27.3683 16.1005 27.1339 15.8661C26.8995 15.6317 26.5815 15.5 26.25 15.5Z" stroke="black" stroke-width="2" stroke-linecap="round" stroke-linejoin="round"/>
<path d="M3.75 6.75V24.25C3.75 24.913 4.01339 25.5489 4.48223 26.0178C4.95107 26.4866 5.58696 26.75 6.25 26.75H25C25.3315 26.75 25.6495 26.6183 25.8839 26.3839C26.1183 26.1495 26.25 25.8315 26.25 25.5V20.5" stroke="black" stroke-width="2" stroke-linecap="round" stroke-linejoin="round"/>
</svg>
