<svg width="25" height="25" viewBox="0 0 25 25" fill="none" xmlns="http://www.w3.org/2000/svg">
<path d="M8.33341 22.9168C8.90871 22.9168 9.37508 22.4505 9.37508 21.8752C9.37508 21.2999 8.90871 20.8335 8.33341 20.8335C7.75812 20.8335 7.29175 21.2999 7.29175 21.8752C7.29175 22.4505 7.75812 22.9168 8.33341 22.9168Z" stroke="#393E46" stroke-width="2" stroke-linecap="round" stroke-linejoin="round"/>
<path d="M19.643 22.8572C20.2347 22.8572 20.7144 22.3775 20.7144 21.7858C20.7144 21.1941 20.2347 20.7144 19.643 20.7144C19.0512 20.7144 18.5715 21.1941 18.5715 21.7858C18.5715 22.3775 19.0512 22.8572 19.643 22.8572Z" stroke="#393E46" stroke-width="2" stroke-linecap="round" stroke-linejoin="round"/>
<path d="M1.85181 1.85205H3.93514L6.70597 14.7896C6.80762 15.2634 7.07125 15.6869 7.45151 15.9873C7.83176 16.2877 8.30483 16.4462 8.78931 16.4354H18.9768C19.4509 16.4346 19.9106 16.2721 20.28 15.9748C20.6493 15.6774 20.9061 15.263 21.0081 14.8L22.7268 7.06038H5.04972" stroke="#393E46" stroke-width="2" stroke-linecap="round" stroke-linejoin="round"/>
</svg>
