<svg width="27" height="27" viewBox="0 0 27 27" fill="none" xmlns="http://www.w3.org/2000/svg">
<path d="M9 24.75C9.62132 24.75 10.125 24.2463 10.125 23.625C10.125 23.0037 9.62132 22.5 9 22.5C8.37868 22.5 7.875 23.0037 7.875 23.625C7.875 24.2463 8.37868 24.75 9 24.75Z" stroke="#F9F9F9" stroke-width="2" stroke-linecap="round" stroke-linejoin="round"/>
<path d="M21.375 24.75C21.9963 24.75 22.5 24.2463 22.5 23.625C22.5 23.0037 21.9963 22.5 21.375 22.5C20.7537 22.5 20.25 23.0037 20.25 23.625C20.25 24.2463 20.7537 24.75 21.375 24.75Z" stroke="white" stroke-width="2" stroke-linecap="round" stroke-linejoin="round"/>
<path d="M2.30615 2.30615H4.55615L7.54865 16.2787C7.65843 16.7904 7.94316 17.2478 8.35383 17.5722C8.7645 17.8967 9.27542 18.0678 9.79865 18.0562H20.8012C21.3132 18.0553 21.8097 17.8799 22.2086 17.5587C22.6074 17.2376 22.8848 16.79 22.9949 16.2899L24.8512 7.93115H5.7599" stroke="white" stroke-width="2" stroke-linecap="round" stroke-linejoin="round"/>
</svg>
