<svg width="45" height="46" viewBox="0 0 45 46" fill="none" xmlns="http://www.w3.org/2000/svg">
<g clip-path="url(#clip0_201_701)">
<path d="M22.395 0.404358C16.4458 0.432121 10.7498 2.8149 6.55293 7.03146C2.35605 11.248 -6.47794e-05 16.9551 1.33582e-09 22.9044C1.33583e-09 28.8717 2.37053 34.5947 6.5901 38.8143C10.8097 43.0338 16.5326 45.4044 22.5 45.4044C28.4674 45.4044 34.1903 43.0338 38.4099 38.8143C42.6295 34.5947 45 28.8717 45 22.9044C45 16.937 42.6295 11.214 38.4099 6.99446C34.1903 2.77489 28.4674 0.404358 22.5 0.404358C22.465 0.404276 22.43 0.404276 22.395 0.404358ZM31.6987 13.9494C31.8862 13.9456 32.3006 13.9925 32.5706 14.2119C32.75 14.3677 32.8645 14.5851 32.8913 14.8212C32.9212 14.9956 32.9588 15.395 32.9287 15.7062C32.5913 19.265 31.125 27.8975 30.3787 31.8819C30.0637 33.5694 29.4431 34.1337 28.8412 34.1881C27.5362 34.31 26.5444 33.3256 25.2788 32.4969C23.2987 31.1975 22.1794 30.3894 20.2575 29.1219C18.0356 27.6594 19.4756 26.8531 20.7413 25.5406C21.0731 25.1956 26.8294 19.9587 26.9419 19.4844C26.955 19.4244 26.9681 19.2031 26.8369 19.0869C26.7056 18.9706 26.5106 19.01 26.37 19.0419C26.1712 19.0869 23.0081 21.1794 16.8806 25.3137C15.9806 25.9325 15.1688 26.2325 14.4394 26.2137C13.6369 26.1987 12.0919 25.7619 10.9425 25.3887C9.5325 24.9294 8.41313 24.6875 8.51062 23.9094C8.56125 23.5044 9.12 23.09 10.185 22.6662C16.7437 19.8087 21.1163 17.9244 23.3063 17.015C29.5538 14.4162 30.8531 13.9644 31.6987 13.9494Z" fill="white"/>
</g>
<defs>
<clipPath id="clip0_201_701">
<rect width="45" height="45" fill="white" transform="translate(0 0.404297)"/>
</clipPath>
</defs>
</svg>
