<svg width="45" height="46" viewBox="0 0 45 46" fill="none" xmlns="http://www.w3.org/2000/svg">
<path d="M17.7919 0.409922L19.1588 0.404297H25.8412L27.21 0.409922L28.9237 0.428673L29.7356 0.441798L30.5194 0.462424L31.275 0.488675L32.0025 0.518677L32.7038 0.558053L33.3787 0.60493L34.0256 0.661183L34.65 0.72306C37.9125 1.09058 40.1494 1.87811 41.8369 3.56568C43.5244 5.25325 44.3119 7.48834 44.6794 10.7529L44.7431 11.3773L44.7975 12.026L44.8444 12.7011L44.8819 13.4005L44.9287 14.503L44.9513 15.2718L44.9756 16.4793L44.9925 18.195L45 20.0326L44.9981 26.2447L44.9925 27.6136L44.9738 29.3274L44.9606 30.1393L44.94 30.9231L44.9137 31.6787L44.8838 32.4063L44.8444 33.1075L44.7975 33.7826L44.7412 34.4295L44.6794 35.0539C44.3119 38.3165 43.5244 40.5535 41.8369 42.241C40.1494 43.9286 37.9144 44.7161 34.65 45.0837L34.0256 45.1474L33.3769 45.2018L32.7019 45.2487L32.0025 45.2862L30.9 45.333L30.1312 45.3555L28.9237 45.3799L27.2081 45.3968L25.3706 45.4043L19.1588 45.4024L17.79 45.3968L16.0763 45.378L15.2644 45.3649L14.4806 45.3443L13.725 45.318L12.9975 45.288L12.2963 45.2487L11.6213 45.2018L10.9744 45.1455L10.35 45.0837C7.0875 44.7161 4.85063 43.9286 3.16313 42.241C1.47563 40.5535 0.688125 38.3184 0.320625 35.0539L0.256875 34.4295L0.2025 33.7807L0.155625 33.1057L0.118125 32.4063L0.07125 31.3037L0.04875 30.5349L0.024375 29.3274L0.0075 27.6117L0 25.7741L0.001875 19.562L0.0075 18.1932L0.02625 16.4793L0.039375 15.6674L0.06 14.8836L0.08625 14.128L0.11625 13.4005L0.155625 12.6992L0.2025 12.0242L0.25875 11.3773L0.320625 10.7529C0.688125 7.49022 1.47563 5.25325 3.16313 3.56568C4.85063 1.87811 7.08562 1.09058 10.35 0.72306L10.9744 0.659307L11.6231 0.60493L12.2981 0.558053L12.9975 0.520552L14.1 0.473675L14.8687 0.451174L16.0763 0.426798L17.7919 0.409922ZM12.7312 14.0905H7.59375C7.8375 25.791 13.6875 32.8225 23.9438 32.8225H24.525V26.1285C28.2938 26.5035 31.1437 29.2599 32.2875 32.8225H37.6125C36.15 27.4973 32.3062 24.5534 29.9062 23.4284C32.3062 22.0408 35.6812 18.6657 36.4875 14.0905H31.65C30.6 17.8031 27.4875 21.1783 24.525 21.497V14.0905H19.6875V27.066C16.6875 26.316 12.9 22.6784 12.7312 14.0905Z" fill="white"/>
</svg>
