<svg width="45" height="46" viewBox="0 0 45 46" fill="none" xmlns="http://www.w3.org/2000/svg">
<path d="M32.8089 27.3706C32.2494 27.0912 29.4969 25.745 28.9845 25.5575C28.4702 25.3718 28.0971 25.28 27.7222 25.8387C27.3511 26.3956 26.2773 27.65 25.9513 28.0212C25.6254 28.3943 25.2976 28.4393 24.7381 28.1618C24.1785 27.8806 22.3737 27.2937 20.2354 25.3962C18.5719 23.9187 17.4472 22.0943 17.1213 21.5356C16.7954 20.9787 17.0874 20.6768 17.3662 20.3993C17.6186 20.15 17.9276 19.7487 18.2064 19.4243C18.4871 19.0981 18.5795 18.8656 18.7679 18.4925C18.9544 18.1212 18.8621 17.7968 18.7208 17.5175C18.5795 17.2381 17.4604 14.495 16.9951 13.3794C16.5391 12.2937 16.0776 12.4419 15.7347 12.4231C15.4088 12.4081 15.0358 12.4044 14.6609 12.4044C14.2878 12.4044 13.6812 12.5431 13.1688 13.1019C12.6563 13.6587 11.2095 15.0069 11.2095 17.75C11.2095 20.4912 13.2159 23.1406 13.4947 23.5137C13.7754 23.885 17.4434 29.5137 23.0595 31.9268C24.3952 32.5006 25.437 32.8437 26.2509 33.0987C27.5922 33.5243 28.813 33.4643 29.7757 33.3199C30.8515 33.1606 33.0877 31.9718 33.5549 30.6706C34.0222 29.3693 34.0222 28.2537 33.8809 28.0212C33.7414 27.7887 33.3703 27.65 32.8089 27.3706ZM22.5941 41.2512H22.5866C19.2516 41.2514 15.9779 40.359 13.1085 38.6674L12.4284 38.2662L5.38055 40.1074L7.26072 33.2674L6.81799 32.5662C4.95372 29.6117 3.96747 26.1925 3.97324 22.7037C3.97512 12.485 12.3304 4.17124 22.6017 4.17124C27.5753 4.17124 32.2512 6.10249 35.7667 9.60498C37.5012 11.3236 38.876 13.3676 39.8115 15.6186C40.7471 17.8695 41.2247 20.2828 41.2169 22.7187C41.2113 32.9374 32.8579 41.2512 22.5941 41.2512ZM38.4438 6.94436C36.368 4.86485 33.8982 3.216 31.1776 2.09337C28.4569 0.970742 25.5394 0.396654 22.5941 0.404374C10.2449 0.404374 0.194046 10.4075 0.188394 22.7018C0.188394 26.6318 1.21891 30.4681 3.1801 33.8487L0 45.4043L11.8783 42.3031C15.1631 44.0841 18.844 45.0176 22.5847 45.0181H22.5941C34.9415 45.0181 44.9942 35.0149 44.9999 22.7187C45.009 19.7886 44.4343 16.8858 43.3089 14.1782C42.1836 11.4705 40.53 9.01187 38.4438 6.94436Z" fill="white"/>
</svg>
